# xmcd
#
# Track frame offsets: 
#        150
#        26845
#        52725
#        68040
#        87235
#        104190
#        122015
#        135820
#        153185
#
# Disc length: 2322 seconds
#
# Revision: 2
# Processed by: cddbd v1.5.2PL0 Copyright (c) Steve Scherf et al.
# Submitted via: ExactAudioCopy v1.3
#
DISCID=6c091009
DTITLE=Đorđe Balašević - Marim ja...
DYEAR=1998
DGENRE=
TTITLE0=Čovek za koga se udala Buba Erdeljan
TTITLE1=Ringišpil
TTITLE2=Slabo divanim madžarski
TTITLE3=Marim ja...
TTITLE4=Nevernik
TTITLE5=Divlji badem
TTITLE6=Citron pesma
TTITLE7=Olelole
TTITLE8=Kako su zli dedaci razbucali proslavu godišnjice braka kod mog
TTITLE8=druga Jevrema
EXTD=
EXTT0=
EXTT1=
EXTT2=
EXTT3=
EXTT4=
EXTT5=
EXTT6=
EXTT7=
EXTT8=
PLAYORDER=
